<?xml version="1.0" encoding="UTF-8"?>
<!DOCTYPE svg PUBLIC "-//W3C//DTD SVG 1.1//EN" "http://www.w3.org/Graphics/SVG/1.1/DTD/svg11.dtd">
<!-- Creator: CorelDRAW -->
<svg xmlns="http://www.w3.org/2000/svg" xml:space="preserve" width="8.23798in" height="5.06157in" version="1.1" style="shape-rendering:geometricPrecision; text-rendering:geometricPrecision; image-rendering:optimizeQuality; fill-rule:evenodd; clip-rule:evenodd"
viewBox="0 0 8315.71 5109.33"
 xmlns:xlink="http://www.w3.org/1999/xlink"
 xmlns:xodm="http://www.corel.com/coreldraw/odm/2003">
 <defs>
  <style type="text/css">
   <![CDATA[
    .str4 {stroke:white;stroke-width:7.01;stroke-miterlimit:2.61313}
    .str1 {stroke:white;stroke-width:7.01;stroke-miterlimit:2.61313}
    .str2 {stroke:#373535;stroke-width:7.01;stroke-miterlimit:2.61313}
    .str0 {stroke:#373535;stroke-width:7.01;stroke-miterlimit:2.61313}
    .str3 {stroke:#00B0F0;stroke-width:7.01;stroke-miterlimit:2.61313}
    .fil4 {fill:white}
    .fil1 {fill:white}
    .fil2 {fill:#373535}
    .fil0 {fill:#373535}
    .fil3 {fill:#373535;fill-rule:nonzero}
   ]]>
  </style>
 </defs>
 <g id="Layer_x0020_1">
  <metadata id="CorelCorpID_0Corel-Layer"/>
  <g id="_434188456">
   <polygon class="fil0 str0" points="4320.84,637.12 5819.74,2518 7318.64,4398.88 4320.84,4398.88 1323.03,4398.88 2821.94,2518 "/>
   <polygon class="fil1 str1" points="4323.33,638.87 4686.82,2518.88 5050.31,4398.88 4323.33,4398.88 3596.36,4398.88 3959.85,2518.88 "/>
   <polygon class="fil0 str0" points="3158.29,4223.66 5253.33,4223.66 5253.33,4330.32 3158.29,4330.32 "/>
   <g>
    <path class="fil2 str2" d="M3305 2577.38c622.29,0 1244.57,0 1866.86,0 0,35.55 0,71.11 0,106.66 -622.28,0 -1244.57,0 -1866.86,0 0,-35.55 0,-71.11 0,-106.66z"/>
    <path class="fil2 str2" d="M3430.02 2025.3c546.22,0 1092.45,0 1638.67,0 0,35.55 0,71.11 0,106.66 -546.22,0 -1092.44,0 -1638.67,0 0,-35.55 0,-71.11 0,-106.66z"/>
    <path class="fil2 str2" d="M3550.86 1684.45c470.17,0 940.33,0 1410.49,0 0,35.55 0,71.11 0,106.66 -470.16,0 -940.32,0 -1410.49,0 0,-35.55 0,-71.11 0,-106.66z"/>
    <path class="fil2 str2" d="M3669.85 1437.22c394.1,0 788.2,0 1182.3,0 0,35.55 0,71.11 0,106.66 -394.1,0 -788.2,0 -1182.3,0 0,-35.55 0,-71.11 0,-106.66z"/>
    <path class="fil2 str2" d="M3787.79 1243.1c318.04,0 636.08,0 954.12,0 0,35.55 0,71.11 0,106.66 -318.04,0 -636.08,0 -954.12,0 0,-35.55 0,-71.11 0,-106.66z"/>
    <path class="fil2 str2" d="M3905.05 1083.26c241.98,0 483.96,0 725.94,0 0,35.55 0,71.11 0,106.66 -241.97,0 -483.96,0 -725.94,0 0,-35.55 0,-71.11 0,-106.66z"/>
    <path class="fil2 str2" d="M4021.83 947.4c165.92,0 331.84,0 497.76,0 0,35.55 0,71.11 0,106.66 -165.92,0 -331.83,0 -497.76,0 0,-35.55 0,-71.11 0,-106.66z"/>
   </g>
   <polygon class="fil0 str0" points="4138.26,829.24 4407.84,829.24 4407.84,935.9 4138.26,935.9 "/>
   <path class="fil3" d="M879.67 3158.63l139.98 -120.84c47.08,-40.64 71.19,-77.56 73.53,-111.07 2.05,-33.56 -15.73,-73.39 -53.36,-119.71 -38.93,-47.92 -74.85,-74.14 -107.92,-78.68 -33.61,-4.88 -77.41,13.28 -132.13,55.26l-139.12 106.73 219.02 268.31zm374.46 1157.2l-1254.13 -1527.41 548.85 -359.45c149.52,-97.92 274.86,-134.44 380.66,-114.83 102.84,19.23 206.43,94.38 312.11,224.98 62.92,77.76 105.02,151.1 126.08,220.45 21.25,69.99 22.57,140.22 3.27,211 57.03,-25.81 112.82,-25.45 167.91,0.45 54.75,25.92 116.86,80.28 186.57,163.79l146.01 171.4c0.95,1.17 2.28,2.45 3.78,3.54 41.51,49.05 69.06,67.71 82.63,56.1l37.71 46.63 -225.96 275.3c-30.12,-26.5 -56.25,-50.63 -77.87,-71.72 -21.67,-21.12 -37.82,-38.46 -48.64,-51.78l-108.59 -133.62c-56.29,-69.26 -104.04,-109.21 -143.98,-120.51 -40.3,-11.41 -81.83,4.2 -125.47,47.45l-123.25 122.16 398.19 487.79 -285.87 348.28zm522.1 -1789.18c89.13,110.77 164.32,182.37 225.04,214.25 60,31.5 109.33,26.48 147.62,-14.34 37.17,-39.62 44.35,-92.48 22.35,-158.8 -21.99,-65.92 -74.6,-150.53 -158.15,-254.8 -84.11,-104.96 -154.86,-174.25 -212.99,-208.17 -58.8,-34.3 -109.51,-35.41 -152.6,-2.71 -44.39,33.69 -56.91,84.84 -36.84,153.11 20.28,68.99 75.62,159.66 165.58,271.45zm-222.85 201.04c-163.76,-202.72 -257.04,-390.58 -278.84,-558.46 -21.32,-162.81 28.19,-280.63 142.49,-354.19 107.83,-69.4 230.14,-70.28 367.91,-6.59 133.42,61.35 266.75,176.78 402.74,347.02 135.22,169.28 219.83,326.41 254.7,474.94 35.99,152.64 15.4,279.12 -65.81,379.71 -86.05,106.58 -202.53,139.45 -349.13,92.74 -151.96,-48.42 -311.3,-173.7 -474.05,-375.16zm974.98 -617.69l83.28 -82.67 -305.06 -292.21 221.78 374.87zm94.55 538.18l-636.91 -1160.41 158.87 -104.04 865.17 792.8 -107.87 131.43 -111.32 -107.28 -123.99 139.62 87.52 147.71 -131.47 160.17zm344.95 -840.04l26.7 -27.97c24.32,-25.47 29.32,-57.53 15.36,-96.28 -13.94,-38.73 -50.52,-95.56 -109.99,-170.97 -58.21,-73.79 -104.5,-121.83 -139.26,-144.32 -35.21,-22.87 -65.74,-24.31 -91.98,-4.05l-31.87 24.62 331.04 418.96zm71.51 332.65l-700.15 -884.35 152.27 -99.72c36.33,-23.8 65.67,-37.47 88.48,-41.43 22.54,-3.91 46.39,-1.62 71.59,6.78 48.9,16.87 101.89,50.79 159.36,101.5 56.78,50.06 118.49,117.53 185.35,202.44 70.07,88.98 123.14,169.83 159.31,243.04 36.52,73.89 55.45,138.9 56.68,195.52 0.8,22.69 -3.43,44.64 -12.83,65.97 -9.51,21.6 -29.4,51.06 -60.42,88.85l-99.64 121.4zm501.15 -610.57l-549.21 -700.84 189.12 -123.86 121.67 155.73 -103.38 79.18 70.77 90.42 85.18 -70.96 116.9 149.58 -80.26 77.03 82.02 104.79 93.91 -98.96 122.22 156.43 -148.94 181.46zm173.56 -211.46l-497.41 -636.98 148.89 -97.51 117.02 150.21 -78.29 60.42 74.8 95.88 60.4 -51.4 112.86 144.83 -56.72 55.97 169.12 216.81 -50.69 61.76zm131.86 -160.66l-458.2 -588.36 127.36 -83.41 108.35 139.41 -67.14 51.82 69.06 88.75 51.78 -44.05 104.47 134.39 -48.62 47.99 156.2 200.75 -43.27 52.72zm112.97 -137.64l-424.72 -546.63 116.11 -76.05 95.73 123.43 -63.98 49 55.12 71 52.65 -43.86 91.91 118.49 -49.63 47.63 63.94 82.36 58.21 -61.34 96.36 124.25 -91.7 111.72zm25.75 -394.81l30.9 -29.83c47.36,63.22 80.36,116.36 99.21,159.71 19.06,43.85 22.09,74.23 8.67,90.84 -15.36,19.03 -45.87,10.9 -91.65,-24.99 -46.43,-36.45 -102.06,-96.35 -166.45,-179.39 -64.29,-82.92 -109.35,-152.79 -134.74,-208.87 -25.18,-55.46 -27.53,-89.35 -7.73,-102.1 17.86,-11.49 44.71,-3.46 80.55,23.63 35.39,26.76 77.29,70.43 126,131.12l-33.19 27.76c-19.7,-24.41 -36.03,-41.57 -49.03,-51.64 -13.15,-10.23 -22.68,-13.04 -28.73,-8.46 -7.44,5.64 -4.27,21.26 9.72,46.99 13.93,25.74 38.77,61.69 74.54,107.85 35.02,45.21 63.19,77.44 84.64,96.86 21.33,19.31 35.32,25.44 41.93,18.39 5.05,-5.39 3.62,-16.6 -4.13,-33.51 -7.72,-16.85 -21.15,-38.21 -40.5,-64.34zm202.63 116.57l-263.01 -340.09 -30.37 23.61 -96.29 -124.43 96.02 -62.88 90.51 117.15 -27.38 21.29 257.24 332.8 -26.72 32.56z"/>
   <g>
    <g>
     <polygon class="fil0 str3" points="4662.75,51.91 7718.82,2484.49 7381.94,4322.13 4371.24,595.33 "/>
     <polygon class="fil1 str1" points="4605.78,67.53 8311.99,3131.19 8302.56,3204.47 4595.23,87.02 "/>
     <g>
      <path class="fil4 str4" d="M4575.83 127.82c547.5,476.35 1519.58,1322.09 3722.87,3239.02 -3.22,25.27 -6.45,50.63 -9.69,76.09 -2207.25,-1953.27 -3177.97,-2812.28 -3723.87,-3295.37 3.56,-6.59 7.13,-13.17 10.69,-19.74z"/>
      <path class="fil4 str4" d="M4545.46 188.94c543.79,497.78 1514.45,1386.33 3739.41,3423.09 -3.31,26.26 -6.63,52.62 -9.97,79.08 -2228.95,-2075.15 -3198.15,-2977.47 -3740.26,-3482.17 3.61,-6.68 7.21,-13.35 10.81,-20z"/>
      <path class="fil4 str4" d="M4514.67 250.9c539.88,519.84 1508.84,1452.85 3755.8,3616.45 -3.4,27.31 -6.82,54.72 -10.26,82.26 -2250.96,-2204.19 -3218.35,-3151.48 -3756.49,-3678.44 3.65,-6.76 7.3,-13.52 10.95,-20.26z"/>
      <path class="fil4 str4" d="M4483.45 313.73c535.77,542.55 1502.75,1521.75 3772.01,3819.72 -3.51,28.43 -7.03,56.97 -10.56,85.63 -2273.28,-2340.93 -3238.57,-3334.95 -3772.54,-3884.81 3.7,-6.86 7.4,-13.7 11.09,-20.53z"/>
      <path class="fil4 str4" d="M4451.79 377.45c531.47,565.92 1496.13,1593.12 3788.02,4033.58 -3.61,29.62 -7.24,59.36 -10.89,89.22 -2295.89,-2485.97 -3258.76,-3528.55 -3788.36,-4102 3.75,-6.94 7.5,-13.88 11.23,-20.81z"/>
      <path class="fil4 str4" d="M4419.68 442.07c526.96,589.98 1488.99,1667.09 3803.78,4258.76 -3.73,30.88 -7.48,61.91 -11.24,93.05 -2318.79,-2639.92 -3278.9,-3733 -3803.92,-4330.73 3.8,-7.04 7.59,-14.07 11.38,-21.09z"/>
     </g>
     <polygon class="fil1 str1" points="4387.12,507.61 8206.37,5003.7 8194.77,5100.85 4375.59,528.98 "/>
    </g>
    <polygon class="fil1 str1" points="4754.31,5.24 4795.69,35.86 4450.92,693.97 4413.82,648.04 "/>
    <g>
     <path class="fil4 str4" d="M4857.07 80.44c14.96,11.07 30.12,22.28 45.48,33.65 -113.16,222.28 -231.47,454.7 -355.3,697.95 -13.88,-17.17 -27.55,-34.09 -41.04,-50.78 122.17,-237.06 239.01,-463.78 350.86,-680.81z"/>
     <path class="fil4 str4" d="M4970.14 163.2c16.51,12.2 33.25,24.58 50.23,37.13 -116.34,235.98 -238.26,483.3 -366.19,742.77 -15.44,-19.1 -30.66,-37.92 -45.64,-56.45 126.2,-252.48 246.6,-493.37 361.6,-723.46z"/>
     <path class="fil4 str4" d="M5095.19 254.72c18.31,13.53 36.9,27.26 55.76,41.2 -119.55,251.43 -245.18,515.62 -377.34,793.56 -17.3,-21.38 -34.32,-42.42 -51.08,-63.13 130.38,-269.96 254.45,-526.87 372.66,-771.63z"/>
     <path class="fil4 str4" d="M5234.22 356.46c20.42,15.09 41.18,30.41 62.25,45.97 -122.76,268.98 -252.12,552.44 -388.65,851.56 -19.5,-24.1 -38.67,-47.79 -57.53,-71.07 134.69,-289.95 262.49,-565.06 383.93,-826.46z"/>
     <path class="fil4 str4" d="M5389.69 470.24c22.93,16.93 46.25,34.14 69.95,51.64 -125.87,289.08 -258.96,594.7 -399.88,918.34 -22.16,-27.36 -43.92,-54.23 -65.29,-80.62 139.09,-312.98 270.63,-608.98 395.23,-889.36z"/>
     <path class="fil4 str4" d="M5564.71 598.34c25.93,19.13 52.31,38.6 79.18,58.42 -128.78,312.3 -265.44,643.71 -410.72,996.03 -25.39,-31.34 -50.29,-62.08 -74.73,-92.23 143.48,-339.81 278.67,-660 406.27,-962.22z"/>
     <path class="fil4 str4" d="M5763.24 743.63c29.54,21.79 59.65,43.99 90.33,66.61 -131.29,339.43 -271.2,701.15 -420.6,1087.44 -29.38,-36.25 -58.17,-71.75 -86.35,-106.53 147.72,-371.42 286.33,-719.91 416.63,-1047.52z"/>
     <path class="fil4 str4" d="M5990.33 909.83c33.98,25.05 68.66,50.6 104.04,76.68 -133.12,371.5 -275.66,769.34 -428.69,1196.41 -34.41,-42.42 -68.04,-83.9 -100.94,-124.45 151.6,-409.15 293.14,-791.16 425.59,-1148.63z"/>
     <path class="fil4 str4" d="M6252.63 1101.8c39.5,29.09 79.85,58.82 121.11,89.21 -133.82,409.94 -277.93,851.45 -433.6,1328.33 -40.82,-50.31 -80.65,-99.41 -119.54,-147.32 154.72,-454.89 298.34,-877.17 432.03,-1270.22z"/>
     <path class="fil4 str4" d="M6559.02 1326.02c46.45,34.21 94.02,69.23 142.74,105.1 -132.67,456.79 -276.53,952.08 -433.04,1490.95 -49.22,-60.63 -97.13,-119.65 -143.79,-177.12 156.44,-511.33 300.68,-982.82 434.1,-1418.94z"/>
     <path class="fil4 str4" d="M6921.61 1591.39c55.46,40.81 112.35,82.68 170.75,125.65 -128.53,515.01 -269.01,1077.96 -423.21,1695.86 -60.5,-74.49 -119.22,-146.79 -176.25,-217 155.66,-582.54 298.02,-1115.34 428.71,-1604.51z"/>
    </g>
    <polygon class="fil1 str1" points="7357.48,1910.38 7565.34,2063.27 7167.92,4024.25 6946.86,3752.21 "/>
   </g>
  </g>
 </g>
</svg>
